<svg xmlns="http://www.w3.org/2000/svg" width="64" height="64" stroke="#000" stroke-width="0"><path d="M0 0h64v64H0z" fill="#7775ff"/><path d="M34.186 8.504c4.864-.173 11.233 4.915 11.808 7.762.33 1.632-12.896 14.982-10.439 29.741.583 3.502 4.728 2.238 6.416 3.873 1.21 1.172 1.078 3.148-.337 4.26-2.92 2.295-10.867 1.384-13.1-.513-3.331-2.829-4.155-15.358-5.912-19.344-2.074-4.705-8.324-5.204-6.179-11.439 1.65-4.798 8.391-3.673 11.078-5.414 3.116-2.02 4.712-8.854 6.667-8.925z" fill="#fff" stroke="none"/></svg>