<svg xmlns="http://www.w3.org/2000/svg" width="210" height="47" stroke="#000" stroke-width="0"><path d="M18.185.004c4.864-.173 11.233 4.915 11.808 7.762.33 1.632-12.896 14.982-10.439 29.741.583 3.502 4.728 2.238 6.416 3.873 1.21 1.172 1.078 3.148-.337 4.26-2.92 2.295-10.867 1.384-13.1-.513-3.331-2.829-4.155-15.358-5.912-19.344-2.074-4.705-8.324-5.204-6.179-11.439 1.65-4.798 8.391-3.673 11.078-5.414C14.636 6.91 16.232.076 18.187.005l-.002-.001z" stroke="none" fill="#7775ff"/><path d="M44.435 15.444c.946-1.132 2.031-2.038 3.256-2.727 1.231-.681 2.603-1.023 4.112-1.023 4.156 0 7.131 1.538 8.93 4.603.944-1.276 2.132-2.362 3.574-3.262 1.445-.892 3.065-1.341 4.859-1.341 3.35 0 5.97 1.004 7.858 3.009s2.835 5.113 2.835 9.319v14.454c0 .609-.306.916-.916.916h-6.234c-.617 0-.926-.307-.926-.916V24.73c0-2.128-.448-3.606-1.342-4.436-.9-.822-1.965-1.229-3.192-1.229-1.135 0-2.21.407-3.226 1.229-1.013.83-1.516 2.283-1.516 4.358v13.824c0 .609-.308.916-.927.916h-6.3c-.615 0-.928-.307-.928-.916V24.73c0-2.128-.436-3.606-1.306-4.436-.871-.822-1.922-1.229-3.153-1.229-1.18 0-2.285.407-3.299 1.229-1.012.83-1.514 2.283-1.514 4.358v13.824c0 .609-.314.916-.929.916h-6.234c-.612 0-.916-.307-.916-.916V13.253c0-.616.304-.926.916-.926h.358c1.555 0 2.853.239 3.892.708s1.795 1.277 2.268 2.409zM98.85 40.099c-4.298 0-7.736-1.308-10.318-3.932-2.57-2.619-3.856-6.076-3.856-10.378 0-4.295 1.264-7.743 3.792-10.345 2.532-2.592 5.94-3.891 10.238-3.891 4.343 0 7.791 1.299 10.341 3.891 2.554 2.602 3.826 6.05 3.826 10.345 0 4.302-1.249 7.759-3.751 10.378s-5.932 3.932-10.272 3.932zm-.144-7.652c1.467 0 2.789-.462 3.963-1.384 1.189-.915 1.778-2.627 1.778-5.135 0-2.451-.581-4.174-1.743-5.164-1.155-.996-2.464-1.493-3.925-1.493-1.466 0-2.789.497-3.967 1.493-1.184.99-1.774 2.713-1.774 5.164 0 2.508.576 4.22 1.73 5.135a6.18 6.18 0 0 0 3.938 1.384zm26.561-16.785c.946-1.278 2.102-2.256 3.476-2.945 1.368-.681 2.786-1.023 4.249-1.023 3.355 0 5.996 1.004 7.938 3.009 1.932 2.004 2.9 5.113 2.9 9.319v14.454c0 .609-.305.916-.915.916h-6.313c-.611 0-.915-.307-.915-.916V24.872c0-2.171-.506-3.663-1.527-4.469-1.017-.8-2.159-1.198-3.433-1.198s-2.411.398-3.401 1.198c-.996.806-1.49 2.273-1.49 4.393v13.68c0 .609-.309.916-.918.916h-6.235c-.618 0-.928-.307-.928-.916V13.253c0-.616.31-.926.928-.926h.349c1.657 0 2.992.248 4.002.741 1.016.504 1.764 1.368 2.233 2.594zm43.434-.645V.926c0-.619.307-.926.915-.926h.361c2.266 0 3.98.52 5.133 1.559s1.735 2.832 1.735 5.385v31.532c0 .609-.308.916-.916.916h-6.313c-.608 0-.915-.307-.915-.916v-2.125c-.899 1.134-2.036 2.029-3.402 2.692s-2.885.993-4.532.993c-2.692 0-4.942-.653-6.735-1.953s-3.153-3.038-4.078-5.21c-.916-2.173-1.374-4.582-1.374-7.227s.483-5.043 1.449-7.191 2.398-3.845 4.285-5.102c1.891-1.251 4.206-1.876 6.942-1.876 1.797 0 3.298.32 4.503.959s2.186 1.499 2.942 2.581zm-5.743 17.43c.617 0 1.374-.149 2.267-.457.9-.305 1.703-.944 2.408-1.917.714-.967 1.068-2.419 1.068-4.349 0-1.938-.344-3.36-1.036-4.251-.682-.902-1.471-1.484-2.366-1.743s-1.682-.382-2.341-.382c-.612 0-1.389.124-2.334.382s-1.793.841-2.548 1.743c-.756.891-1.135 2.313-1.135 4.251 0 1.93.365 3.382 1.088 4.349.735.973 1.584 1.612 2.551 1.917.976.308 1.766.457 2.378.457zm38.9 3.904c-.899 1.134-2.033 2.029-3.401 2.692-1.375.661-2.884.993-4.533.993-2.693 0-4.941-.653-6.734-1.953s-3.157-3.038-4.081-5.21c-.915-2.173-1.37-4.582-1.37-7.227s.497-5.043 1.483-7.191c.993-2.148 2.411-3.845 4.248-5.102 1.848-1.251 4.046-1.876 6.594-1.876 2.175 0 3.955.375 5.342 1.134 1.397.756 2.498 1.585 3.303 2.485a4.43 4.43 0 0 1 2.3-2.124c1.017-.43 2.257-.645 3.717-.645h.36c.609 0 .915.31.915.926v25.223c0 .609-.306.916-.915.916h-6.311c-.611 0-.917-.307-.917-.916v-2.125zm-5.743-3.904c.617 0 1.373-.149 2.266-.457.903-.305 1.706-.944 2.407-1.917.714-.967 1.07-2.419 1.07-4.349 0-1.938-.346-3.36-1.036-4.251-.68-.902-1.471-1.484-2.365-1.743-.9-.258-1.681-.382-2.342-.382-.61 0-1.388.124-2.333.382s-1.796.841-2.55 1.743c-.754.891-1.135 2.313-1.135 4.251 0 1.93.365 3.382 1.09 4.349.737.973 1.585 1.612 2.551 1.917.975.308 1.767.457 2.377.457z" fill="#7775ff"/></svg>